<svg id="Layer_1" data-name="Layer 1" xmlns="http://www.w3.org/2000/svg" viewBox="0 0 880.63 287.16"><defs><style>.cls-1{fill:#fcc12d;}.cls-2{fill:#fff;}.cls-3{fill:#3ff3ff;}.cls-4{fill:#828181;}.cls-5{fill:#e1e1e1;}</style></defs><path class="cls-1" d="M114.51,215.79s4.06-25,11.79-37.06c10.1-15.73,17.34-26.38,17.34-45.36S127,75,88.72,75c-38.47,0-58.48,34.39-58.48,57.51,0,30,29.13,43.59,29.13,83.31"/><path d="M116.6,216.41l-3.51-.57c.17-1,4.2-25.53,12-37.74l.92-1.42c9.72-15.12,16.15-25.1,16.15-43,0-16.67-15.3-56.63-53.15-56.63A54.15,54.15,0,0,0,46.74,96.54c-8.87,10.39-14.39,24.29-14.39,36.28,0,13.46,6.21,23.71,12.78,34.56,7.67,12.66,16.35,27,16.35,48.75H57.92c0-20.76-8-34-15.83-46.9-6.84-11.29-13.29-22-13.29-36.41,0-12.8,5.84-27.58,15.24-38.59a57.58,57.58,0,0,1,45-20.71c21.94,0,35.62,12.41,43.24,22.82,9.94,13.58,13.46,28.61,13.46,37.37,0,18.92-7,29.81-16.71,44.9l-.91,1.42C120.68,191.62,116.64,216.16,116.6,216.41Z"/><path class="cls-2" d="M88.17,224.24,73.9,160.76l14.33-7.29,14,8.27ZM78,162.68,88.16,208l10-44.53L88.1,157.53Z"/><path class="cls-2" d="M75.93,163.5a1.8,1.8,0,0,1-.89-.24L64.36,157a1.78,1.78,0,1,1,1.8-3.07l10.67,6.23a1.78,1.78,0,0,1-.9,3.31Z"/><path class="cls-2" d="M100.17,164.39a1.76,1.76,0,0,1-1.47-.78,1.78,1.78,0,0,1,.47-2.47L109.62,154a1.76,1.76,0,0,1,2.47.47,1.78,1.78,0,0,1-.47,2.47l-10.45,7.11A1.74,1.74,0,0,1,100.17,164.39Z"/><rect class="cls-3" x="57.33" y="231.54" width="59.89" height="14.23" rx="7.12"/><path d="M109.51,247.11H63.85a8.45,8.45,0,1,1,0-16.9h45.66a8.45,8.45,0,0,1,0,16.9ZM63.85,232.88a5.78,5.78,0,0,0,0,11.56h45.66a5.78,5.78,0,0,0,0-11.56Z"/><rect class="cls-3" x="51.99" y="216.13" width="70.56" height="15.42" rx="7.71"/><path d="M114.85,232.88H59.7a9,9,0,0,1,0-18.09h55.15a9,9,0,0,1,0,18.09ZM59.7,217.46a6.38,6.38,0,0,0,0,12.75h55.15a6.38,6.38,0,0,0,0-12.75Z"/><path class="cls-3" d="M106.58,245.77s.89,13.94-19.57,13.94-21.94-13.94-21.94-13.94Z"/><path d="M87.27,261c-21.4,0-23.25-15-23.26-15.13l-.16-1.47h44.24l.08,1.25a13.66,13.66,0,0,1-3.74,9.56C100.82,259.09,95.05,261,87.27,261ZM67,247.11c1,3.36,5.06,11.26,20.27,11.26,7,0,12.13-1.66,15.21-4.94a11.24,11.24,0,0,0,3-6.32Z"/><ellipse class="cls-2" cx="60.79" cy="111.94" rx="16.68" ry="10" transform="translate(-66.06 100.2) rotate(-56.21)"/><path class="cls-1" d="M17.51,121.7a1.75,1.75,0,0,1-.4,0l-13.5-2.44a2.23,2.23,0,1,1,.79-4.38l13.5,2.45a2.22,2.22,0,0,1-.39,4.41Z"/><path d="M4,114.81a2.69,2.69,0,0,1,.4,0l13.5,2.45a2.22,2.22,0,0,1-.39,4.41,1.75,1.75,0,0,1-.4,0l-13.5-2.44A2.22,2.22,0,0,1,4,114.81M4,113H4A4,4,0,0,0,3.29,121l13.5,2.44a3.51,3.51,0,0,0,.72.07,4,4,0,0,0,.71-7.94l-13.5-2.45A4.37,4.37,0,0,0,4,113Z"/><path class="cls-1" d="M27.09,93.09a2.25,2.25,0,0,1-1.36-.46L9.39,80a2.23,2.23,0,0,1,2.72-3.53L28.45,89.11a2.22,2.22,0,0,1-1.36,4Z"/><path d="M10.75,76a2.21,2.21,0,0,1,1.36.46L28.45,89.11a2.22,2.22,0,0,1-1.36,4,2.25,2.25,0,0,1-1.36-.46L9.39,80a2.23,2.23,0,0,1,1.36-4m0-1.78h0a4,4,0,0,0-2.44,7.17L24.65,94a4,4,0,0,0,4.89-6.34L13.2,75.1a4,4,0,0,0-2.45-.84Z"/><path class="cls-1" d="M52,69.52a2.24,2.24,0,0,1-1.89-1L36.77,47.28a2.22,2.22,0,0,1,3.76-2.37l13.35,21.2A2.22,2.22,0,0,1,52,69.52Z"/><path d="M38.65,43.87a2.21,2.21,0,0,1,1.88,1l13.35,21.2a2.23,2.23,0,0,1-3.77,2.37L36.77,47.28a2.22,2.22,0,0,1,.7-3.06,2.25,2.25,0,0,1,1.18-.35m0-1.77h0a4,4,0,0,0-3.9,3.11,4,4,0,0,0,.52,3l13.34,21.2a4,4,0,0,0,7.29-1.25,4,4,0,0,0-.52-3L42,44a4,4,0,0,0-3.39-1.87Z"/><path class="cls-1" d="M159.09,121.7a2.22,2.22,0,0,1-.39-4.41l13.5-2.45a2.23,2.23,0,0,1,.79,4.38l-13.5,2.44A1.81,1.81,0,0,1,159.09,121.7Z"/><path d="M172.59,114.81a2.22,2.22,0,0,1,.4,4.41l-13.5,2.44a1.81,1.81,0,0,1-.4,0,2.22,2.22,0,0,1-.39-4.41l13.5-2.45a2.56,2.56,0,0,1,.39,0m0-1.78h0a4.37,4.37,0,0,0-.72.06l-13.5,2.45a4,4,0,0,0,.71,7.94,3.51,3.51,0,0,0,.72-.07l13.5-2.44a4,4,0,0,0-.71-7.94Z"/><path class="cls-1" d="M149.51,93.09a2.22,2.22,0,0,1-1.36-4L164.49,76.5A2.23,2.23,0,0,1,167.2,80l-16.33,12.6A2.25,2.25,0,0,1,149.51,93.09Z"/><path d="M165.84,76a2.23,2.23,0,0,1,1.36,4l-16.33,12.6a2.25,2.25,0,0,1-1.36.46,2.22,2.22,0,0,1-1.36-4L164.49,76.5a2.2,2.2,0,0,1,1.35-.46m0-1.78h0a3.94,3.94,0,0,0-2.44.84L147.06,87.7A4,4,0,1,0,152,94l16.34-12.6a4,4,0,0,0,.72-5.61,4,4,0,0,0-3.17-1.56Z"/><path class="cls-1" d="M124.6,69.52a2.22,2.22,0,0,1-1.88-3.41l13.34-21.2a2.23,2.23,0,0,1,3.77,2.37l-13.34,21.2A2.24,2.24,0,0,1,124.6,69.52Z"/><path d="M138,43.87a2.25,2.25,0,0,1,1.18.35,2.22,2.22,0,0,1,.7,3.06l-13.34,21.2a2.23,2.23,0,0,1-3.77-2.37l13.34-21.2a2.24,2.24,0,0,1,1.89-1m0-1.77h0A4,4,0,0,0,134.56,44L121.22,65.16A4,4,0,1,0,128,69.43l13.34-21.2A4,4,0,0,0,138,42.1Z"/><path class="cls-1" d="M88.06,62.51a2.28,2.28,0,0,1-2.22-2.34V34a2.23,2.23,0,1,1,4.45,0V60.17A2.29,2.29,0,0,1,88.06,62.51Z"/><path d="M88.06,31.68A2.28,2.28,0,0,1,90.29,34V60.17a2.23,2.23,0,1,1-4.45,0V34a2.27,2.27,0,0,1,2.22-2.33m0-1.83A4.11,4.11,0,0,0,84,34V60.17a4,4,0,1,0,8.09,0V34a4.12,4.12,0,0,0-4-4.16Z"/><rect class="cls-4" x="216.54" y="146.16" width="364.66" height="3.56"/><path class="cls-3" d="M293,280a131.85,131.85,0,0,1-39.35,6.64c-21.5,0-37.07-5.42-47.91-15.91-10.84-10.14-16.79-25.53-16.61-42.84.17-39.17,28.68-61.56,67.32-61.56,15.22,0,30.78,4.58,36.55,7.38V193.3c-7.06-5-24-9.36-36.9-9.36-24.41,0-39.88,17-39.88,42.57,0,24.31,16.1,44,38,44,6.12,0,12.79-.7,14.89-1.75V241.42H248.19V225.06H293Z"/><path class="cls-3" d="M342.86,241.71c1,12.54,14.2,28.08,31,28.29,12.52.17,28.07-3.85,36.24-6.44v16.9c-10,4-27.48,6.7-40.62,6.7-33,0-52-19.11-52-49.57,0-24.68,15.33-52,49.18-52,31.45,0,43.4,19.45,43.4,43.54a80.45,80.45,0,0,1-1,12.54Zm42.75-16.26c0-7.37-2.46-22.38-20.68-22.38-12.74,0-21.47,14.22-22.27,22.38Z"/><path class="cls-3" d="M437.5,218.88c0-12.15.13-31.06.13-31.06h24.3l1.33,13.34h.58a33.85,33.85,0,0,1,28.82-15.53c19.08,0,33.39,13.14,33.39,41.81v57.73H501.49v-54c0-21.32-4.2-25.55-14.69-25.55-8,0-18.17,9.62-20.92,14-.77,1.79-3.82,5.67-3.82,8.45v57H437.5Z"/><path class="cls-3" d="M766.2,251.93c0,12.14-.13,31.05-.13,31.05h-24.3l-1.34-13.34h-.57A33.84,33.84,0,0,1,711,285.17c-19.08,0-33.4-13.14-33.4-41.8V185.63H702.2v54c0,21.33,4.2,25.55,14.7,25.55,8,0,18.16-9.62,20.92-14,.76-1.79,3.81-5.67,3.81-8.46v-57H766.2Z"/><path class="cls-3" d="M617.07,140.61H591.65V166h25.42Z"/><polygon class="cls-3" points="617.07 186.45 617.07 285.17 591.65 285.17 591.65 201.9 555.7 201.9 555.7 186.45 617.07 186.45"/><path class="cls-3" d="M795,261.19c6.48,3.38,26.33,9.19,36.75,9.19,10.65,0,26.09-3.56,26.09-11.27s-14.68-13-27.88-16.81c-23.39-6.77-31.53-15.94-31.3-27.48,0-18.12,17.17-29.19,45.19-29.19,13.2,0,25,2.59,31.95,5.58l.19,17c-5.09-2.38-22.15-6.1-31.87-6.1-8.57,0-22.45,2.76-23.27,9.88-.67,5.79,15.13,12.16,29,16.35,21.53,6.37,30.56,13.06,30.79,27.39,0,18.11-16.67,31.45-49.08,31.45-14.82,0-28-2.78-36.58-6.77Z"/><polygon class="cls-5" points="268.27 38.75 268.27 113.63 292.97 113.63 292.97 126.29 222.91 126.29 222.91 113.63 249.59 113.63 249.59 38.75 222.91 38.75 222.91 26.09 292.97 26.09 292.97 38.75 268.27 38.75"/><path class="cls-5" d="M323.41,43.87v82.42h16.46V73.52s13.7-20.75,24-20.75,9.38,16.6,9.38,22.53v51H391V59.59c0-9.27-6.37-18.38-29.35-18.38-10.23,0-22.09,11.86-22.09,11.86V41.21H323.41Z"/><path class="cls-5" d="M457.27,27V42.69H496.7V53.36H457.27v70.56H441V53.36H418.43V42.69H441V25.2C441,12.75,452.82,0,475.06,0s28.75,6.81,28.75,6.81l-5,10.09S457.27,1.78,457.27,27Z"/><path class="cls-5" d="M558.37,42.69c-28.17,0-42.4,17.19-42.4,41.06s9.79,44.33,42.4,44.33,39.43-26.39,39.43-44.33S589.79,42.69,558.37,42.69Zm-1.48,75c-13.35,0-20.75-15.42-20.75-32.32,0-13.93,4.74-32,20.75-32,12.45,0,20.45,12.15,20.45,32S570.23,117.7,556.89,117.7Z"/></svg>